<?xml version="1.0" standalone="no"?>
<!DOCTYPE svg PUBLIC "-//W3C//DTD SVG 20010904//EN"
 "http://www.w3.org/TR/2001/REC-SVG-20010904/DTD/svg10.dtd">
<svg version="1.0" xmlns="http://www.w3.org/2000/svg"
 width="417.000000pt" height="207.000000pt" viewBox="0 0 417.000000 207.000000"
 preserveAspectRatio="xMidYMid meet">

<g transform="translate(0.000000,207.000000) scale(0.100000,-0.100000)"
fill="#fed700" stroke="none">
<path d="M2114 1826 c-27 -25 -55 -46 -61 -46 -7 0 -13 -5 -13 -11 0 -6 8 -8
18 -5 9 2 40 7 67 11 75 9 81 15 58 60 l-19 37 -50 -46z"/>
<path d="M1963 1758 c-13 -6 -23 -15 -23 -20 0 -5 -8 -7 -19 -3 -42 13 -70
-27 -37 -54 16 -14 46 -4 46 15 0 8 9 14 20 14 30 0 80 28 80 45 0 18 -34 19
-67 3z"/>
<path d="M1786 1677 c-49 -27 -57 -47 -21 -47 45 0 111 42 99 62 -9 14 -38 8
-78 -15z"/>
<path d="M1666 1628 c-16 -6 -199 -88 -407 -183 l-379 -172 -57 29 c-41 20
-78 30 -128 33 l-70 5 68 -14 c61 -13 147 -51 147 -65 0 -4 -133 -67 -296
-141 -162 -74 -291 -136 -286 -138 5 -1 146 54 312 123 344 142 314 139 368
37 60 -113 79 -244 51 -357 -36 -150 -151 -314 -254 -361 -163 -76 -305 -45
-360 80 -83 185 4 415 190 502 78 37 152 29 223 -23 59 -44 76 -114 51 -208
-35 -133 -164 -214 -197 -125 l-13 35 6 -35 c17 -111 150 -62 227 83 32 59 32
193 0 254 -74 141 -262 134 -404 -15 -92 -96 -140 -217 -140 -346 1 -122 43
-201 134 -252 46 -25 63 -29 133 -29 70 0 89 4 149 33 95 44 207 158 259 262
55 109 72 203 57 307 -13 89 -58 198 -110 263 l-29 37 381 158 c209 87 395
168 412 180 56 37 29 68 -38 43z"/>
<path d="M583 1323 c9 -2 23 -2 30 0 6 3 -1 5 -18 5 -16 0 -22 -2 -12 -5z"/>
<path d="M464 1285 c-38 -19 -83 -49 -99 -67 l-30 -32 38 32 c39 33 97 65 156
87 20 8 29 14 20 14 -9 1 -47 -15 -85 -34z"/>
<path d="M2880 1250 c6 -12 9 -69 8 -142 l-3 -123 -28 42 -28 41 -67 -38 c-53
-30 -67 -42 -67 -61 0 -13 4 -90 8 -171 l9 -146 43 -31 c51 -36 59 -37 103
-11 l32 20 0 -25 c0 -24 3 -25 54 -25 l55 0 -7 38 c-4 20 -7 175 -7 345 l0
307 -58 0 c-55 0 -57 -1 -47 -20z m-16 -281 c25 -29 26 -35 26 -160 l0 -129
-35 -17 c-19 -9 -37 -14 -41 -11 -17 17 -24 95 -18 203 8 152 20 172 68 114z"/>
<path d="M1266 1216 c-8 -14 -29 -33 -46 -42 l-30 -18 0 -317 c0 -355 -5 -330
78 -362 54 -22 59 -21 38 2 -15 17 -17 54 -16 390 0 204 -1 371 -4 371 -2 0
-11 -11 -20 -24z"/>
<path d="M1446 1216 c-8 -14 -29 -33 -46 -42 l-30 -18 0 -317 c0 -355 -5 -330
78 -362 54 -22 59 -21 38 2 -16 17 -17 52 -16 390 0 204 -1 371 -4 371 -2 0
-11 -11 -20 -24z"/>
<path d="M1573 1139 c-18 -18 -16 -52 4 -94 18 -38 37 -43 71 -19 18 12 22 25
22 65 0 44 -2 49 -22 49 -13 0 -32 3 -43 6 -11 3 -26 -1 -32 -7z"/>
<path d="M2104 1058 c-59 -40 -66 -66 -29 -114 31 -40 50 -45 41 -10 -5 20 1
30 31 55 21 17 41 31 45 31 5 0 8 -76 8 -170 0 -143 -2 -170 -15 -170 -35 0
-57 118 -32 169 9 17 13 31 11 31 -3 0 -27 -11 -55 -25 -72 -37 -76 -54 -42
-155 33 -99 48 -112 91 -82 38 28 42 27 42 -3 0 -37 17 -31 74 27 40 41 47 53
34 56 -16 3 -18 18 -18 147 l0 143 -57 51 c-31 28 -62 51 -69 51 -6 0 -34 -15
-60 -32z"/>
<path d="M3396 1034 c-46 -34 -54 -44 -38 -44 22 0 22 -1 22 -198 0 -141 -3
-201 -12 -210 -9 -9 3 -12 54 -12 l66 0 -14 29 c-11 23 -14 65 -12 190 2 97 7
162 13 164 18 4 45 -64 34 -85 -8 -16 -2 -14 40 9 28 16 51 33 51 38 0 15 -59
115 -68 115 -4 0 -20 -9 -37 -20 l-30 -20 -5 44 -5 45 -59 -45z"/>
<path d="M194 1026 c-13 -14 -7 -36 11 -36 18 0 25 23 11 36 -8 8 -15 8 -22 0z"/>
<path d="M3113 972 c-35 -26 -66 -58 -70 -72 -4 -14 -8 -73 -8 -133 l0 -108
55 -49 c74 -66 107 -68 150 -6 35 52 35 54 11 85 l-19 24 -6 -34 c-10 -45 -27
-89 -36 -89 -4 0 -15 8 -24 19 -14 15 -16 35 -14 112 3 93 3 94 29 97 14 2 45
-3 67 -11 41 -14 42 -14 48 9 6 23 -2 102 -13 130 -4 11 -93 74 -104 74 -2 0
-32 -22 -66 -48z m91 -58 c14 -31 26 -60 26 -64 0 -5 -19 -8 -42 -7 l-43 2 3
40 c4 62 13 96 22 90 5 -3 20 -31 34 -61z"/>
<path d="M3745 981 c-33 -21 -73 -53 -88 -69 l-28 -29 86 -102 c86 -103 95
-123 72 -155 -12 -17 -15 -16 -45 9 -24 20 -32 35 -32 60 0 29 -3 32 -24 28
-14 -3 -33 -14 -42 -24 -21 -23 -11 -49 43 -114 l36 -44 31 16 c48 25 146 103
146 116 0 7 -40 58 -90 115 -49 56 -90 108 -90 115 0 34 57 50 79 23 6 -7 12
-30 13 -50 1 -41 0 -40 51 -25 54 15 47 47 -30 137 l-29 33 -59 -40z"/>
<path d="M2403 959 c-29 -22 -53 -42 -53 -45 0 -3 10 -4 23 -2 22 3 22 2 25
-155 1 -97 -2 -165 -8 -177 -10 -19 -7 -20 43 -20 l54 0 -8 48 c-4 26 -8 97
-8 158 -1 103 1 112 22 132 27 26 52 28 61 6 3 -9 6 -104 6 -213 0 -144 -3
-201 -12 -211 -11 -11 9 -1 85 44 15 10 17 30 17 198 l0 187 -32 46 c-17 25
-37 45 -44 45 -6 0 -32 -18 -58 -41 l-46 -41 0 41 c0 23 -3 41 -7 41 -5 0 -32
-18 -60 -41z"/>
<path d="M1750 811 l0 -176 33 -47 c17 -27 35 -48 38 -48 3 0 43 30 90 68 l84
67 3 136 3 136 -39 15 -39 15 4 -151 5 -151 -26 -27 c-15 -16 -30 -28 -34 -28
-26 0 -32 31 -32 175 l-1 150 -44 21 -45 21 0 -176z"/>
<path d="M1565 752 c0 -140 -4 -203 -13 -219 -13 -23 -12 -23 53 -23 59 0 65
2 56 18 -5 10 -6 84 -2 176 3 88 4 179 2 203 l-3 43 -47 0 -46 0 0 -198z"/>
<path d="M773 852 c1 -23 33 -23 34 0 1 11 -5 18 -17 18 -12 0 -18 -7 -17 -18z"/>
</g>
</svg>
